<svg width="75" height="40" viewBox="0 0 75 40" fill="none" xmlns="http://www.w3.org/2000/svg">
<path d="M12.161 0H6.11859L0.747559 16.7344H3.98457L5.47119 12.1378H12.9043L14.4629 16.7344H17.6999L12.161 0ZM6.3344 9.48044L9.1398 0.837918L12.0171 9.48044H6.3344ZM22.1298 16.7584V0H19.1566V16.7584H22.1298ZM28.6841 4.40505V0H25.7109V4.40505H23.9125V6.72728H24.2003C24.2003 6.72728 25.7109 6.72729 25.7109 8.37918V13.7179C25.7109 15.4177 27.0776 16.7584 28.7561 16.7584H30.7942V14.1249H29.6193C29.1157 14.1249 28.6841 13.694 28.6841 13.1912V8.59465C28.6841 6.82305 24.9196 6.72728 24.2962 6.72728H30.7942V4.40505H28.6841ZM10.1948 29.7993C10.1948 29.7993 6.9818 29.0572 6.88589 29.0332C5.80688 28.746 4.89573 28.2193 4.89573 27.118C4.89573 25.921 6.35837 24.9394 8.20467 24.9394C10.4586 24.9394 11.7294 26.328 11.7294 27.6926H14.8705C14.8705 24.7718 12.5926 22.306 8.20467 22.306C4.4881 22.306 1.75463 24.293 1.75463 27.1419C1.75463 30.0866 3.6249 31.4991 6.35837 32.1216C6.35837 32.1216 9.59538 32.8637 9.66731 32.8877C10.9142 33.1989 11.9452 33.8214 11.9452 35.0423C11.9452 36.5506 10.0749 37.5082 8.10876 37.3406C5.44722 37.1251 4.46412 35.3775 4.46412 34.1326H1.347C1.347 36.8618 3.6249 39.8783 8.15671 39.998C11.5616 40.0698 15.0863 38.2025 15.0863 35.0423C15.0863 32.1216 13.0722 30.4936 10.1948 29.7993ZM22.7268 37.197C20.8326 37.197 19.8255 35.4014 19.8255 33.3425C19.8255 31.2597 21.0723 29.4881 22.7028 29.4881C23.9976 29.4881 25.0287 30.4457 25.3883 31.7625H28.6014C28.0739 28.6741 25.6041 26.8547 22.6789 26.8547C19.3939 26.8547 16.5405 29.7275 16.7084 33.7256C16.8522 37.4603 19.5378 39.8065 22.7508 39.8065C25.748 39.8065 27.978 37.8194 28.5534 35.1141H25.2445C24.9807 36.1915 24.0216 37.197 22.7268 37.197ZM33.6036 32.2652V32.337V32.2652ZM37.0084 26.9025C35.1861 27.0462 33.6275 28.9375 33.6036 32.2652C33.6275 30.6133 34.3709 29.4163 36.0733 29.4163C37.9436 29.4163 38.543 30.8048 38.543 32.337V39.5431H41.5402V31.3315C41.5402 28.4587 39.1664 26.735 37.0084 26.9025ZM30.6303 22.7848V39.5431H33.6036V22.7848H30.6303ZM49.6104 26.8547C46.4214 26.8547 43.4961 29.2248 43.4961 33.3425C43.4961 37.4603 46.3734 39.7825 49.6104 39.8065C52.8714 39.7825 55.7488 37.4364 55.7488 33.3425C55.7488 29.2248 52.7995 26.8547 49.6104 26.8547ZM49.6104 37.173C48.0279 37.173 46.4933 35.9281 46.4933 33.3425C46.4933 30.9006 48.0039 29.5121 49.6104 29.4881C51.2409 29.5121 52.7515 30.9245 52.7515 33.3425C52.7515 35.9281 51.2169 37.173 49.6104 37.173ZM63.4258 26.8547C60.2367 26.8547 57.3114 29.2248 57.3114 33.3425C57.3114 37.4603 60.1888 39.7825 63.4258 39.8065C66.6868 39.7825 69.5641 37.4364 69.5641 33.3425C69.5641 29.2248 66.6149 26.8547 63.4258 26.8547ZM63.4258 37.173C61.8433 37.173 60.3087 35.9281 60.3087 33.3425C60.3087 30.9006 61.8193 29.5121 63.4258 29.4881C65.0563 29.5121 66.5669 30.9245 66.5669 33.3425C66.5669 35.9281 65.0323 37.173 63.4258 37.173ZM74.6516 39.5431V22.7848H71.6783V39.5431H74.6516ZM74.687 13.1021H34.0073V16.7344H74.687V13.1021Z" fill="white"/>
</svg>
