<svg width="53" height="121" viewBox="0 0 53 121" fill="none" xmlns="http://www.w3.org/2000/svg">
<path fill-rule="evenodd" clip-rule="evenodd" d="M38.6756 26.8871L38.6408 26.964C38.4805 27.2822 38.3103 27.6018 38.2236 27.8298C37.0462 30.9395 34.6577 33.8435 32.4455 36.2758C27.1496 42.0927 22.1657 48.195 17.3041 54.3845C15.9418 56.1187 14.7926 58.0193 13.5469 59.8365C13.1789 60.3746 12.8215 60.9164 12.4616 61.4585C12.3075 61.6963 11.8648 62.1069 11.6843 62.3563C11.5521 62.5345 11.4994 62.6985 11.4841 62.8033C11.4514 63.0696 11.5459 63.2635 11.7067 63.4042C11.8095 63.4969 11.9955 63.6185 12.3249 63.568C15.7867 63.0256 20.1 60.6926 24.5355 57.7444C31.0504 53.4141 37.8485 47.7708 42.5719 44.8371C43.8142 44.0665 46.0754 42.0579 48.2094 40.5781C49.1544 39.92 50.0619 39.3546 50.8219 39.108C50.4184 39.6129 49.8576 40.1945 49.5989 40.5732C48.4826 42.21 47.1184 43.6675 45.9101 45.2331C42.2334 49.9938 34.0333 66.6152 31.7605 72.2407C29.9204 76.7905 21.9036 103.677 23.1997 119.957C23.2277 120.307 23.531 120.568 23.879 120.54C24.227 120.512 24.4859 120.206 24.4583 119.858C23.1779 103.774 31.1122 77.2144 32.9297 72.7192C35.1784 67.1562 43.2723 50.7169 46.9064 46.0137C48.1321 44.4276 49.5085 42.9478 50.6397 41.2909C51.0476 40.6931 52.1214 39.606 52.3865 39.0085C52.5363 38.6713 52.5125 38.385 52.4229 38.1903C52.3118 37.9527 52.0857 37.7139 51.5923 37.7062C50.7846 37.6956 49.7153 38.1307 48.5669 38.8286C46.1769 40.2842 43.3507 42.8622 41.9074 43.7595C37.1769 46.6968 30.3645 52.3474 23.8383 56.6871C20.2004 59.1038 16.6621 61.1188 13.6366 61.9771C13.9499 61.5008 14.2664 61.0291 14.588 60.5566C15.8162 58.76 16.9488 56.8849 18.2937 55.1712C23.1386 49.0072 28.1026 42.9257 33.3764 37.1325C35.6921 34.5878 38.1711 31.5347 39.4044 28.2835C39.5774 27.825 40.0798 26.9827 40.1426 26.5376C40.1827 26.2523 40.1115 26.0268 39.9971 25.8717C39.8593 25.6789 39.6371 25.5189 39.253 25.5441C37.6806 25.6422 35.1289 26.4958 32.1868 27.7343C25.5051 30.5505 16.7371 35.332 13.0689 37.1377C10.6052 38.3502 8.17758 39.6703 5.67679 40.8035C5.55238 40.8601 3.09352 41.7385 1.92206 42.1552C2.06166 41.4144 2.42278 40.3901 2.88048 39.2235C4.49294 35.1248 7.47391 29.4398 8.35636 27.7037C10.0475 24.373 11.82 21.0946 13.4339 17.7238C15.9809 12.4045 18.3509 7.00846 20.9554 1.71667C21.1115 1.40422 20.982 1.02308 20.6712 0.868336C20.3576 0.711442 19.9785 0.840956 19.825 1.15304C17.2158 6.44807 14.844 11.8496 12.2952 17.1742C10.6874 20.5338 8.9187 23.804 7.2315 27.1264C6.34126 28.879 3.33513 34.6191 1.70781 38.7558C0.960863 40.6517 0.524166 42.2433 0.612558 43.0433C0.639727 43.2649 0.82473 43.6944 1.43614 43.6362C2.21851 43.5607 6.02012 42.0406 6.1973 41.961C8.70984 40.8209 11.1492 39.494 13.6251 38.2772C17.2815 36.4783 26.0186 31.7116 32.6764 28.9066C35.0726 27.8962 37.1887 27.1343 38.6756 26.8871Z" fill="#99C2FF"/>
</svg>
