<svg width="39" height="41" viewBox="0 0 39 41" fill="none" xmlns="http://www.w3.org/2000/svg">
<path fill-rule="evenodd" clip-rule="evenodd" d="M13.0489 38.2611C9.32492 37.2584 5.42609 36.7525 1.64397 36.2891C0.829355 36.1919 0.0730442 36.7341 0.0148577 37.4979C-0.101515 38.2622 0.480691 38.9613 1.23712 39.0584C4.90286 39.5045 8.68465 39.9819 12.234 40.9472C12.9904 41.1566 13.8054 40.7256 14.0381 39.9841C14.2709 39.2432 13.8053 38.471 13.0489 38.2611Z" fill="#99C2FF"/>
<path fill-rule="evenodd" clip-rule="evenodd" d="M24.3365 24.0442C18.3433 18.1756 11.5937 13.0625 5.71685 7.03642C5.19318 6.47362 4.26219 6.44347 3.68033 6.96886C3.09846 7.49481 3.0405 8.3792 3.62237 8.94199C9.4992 14.9853 16.2488 20.1153 22.242 26.0012C22.8239 26.5506 23.7547 26.5584 24.3365 26.0179C24.8602 25.478 24.9184 24.5936 24.3365 24.0442Z" fill="#99C2FF"/>
<path fill-rule="evenodd" clip-rule="evenodd" d="M35.5673 1.47162C35.7418 4.83052 35.9161 8.18943 36.0906 11.5489C36.0906 12.3183 36.7892 12.9123 37.6038 12.8749C38.4184 12.837 38.9999 12.182 38.9999 11.4121C38.8254 8.04761 38.6512 4.68368 38.4766 1.31975C38.4184 0.550376 37.7201 -0.0397771 36.9055 0.00209755C36.149 0.0439722 35.5091 0.702802 35.5673 1.47162Z" fill="#99C2FF"/>
</svg>
