<?xml version="1.0" encoding="utf-8"?>
<!-- Generator: Adobe Illustrator 19.0.0, SVG Export Plug-In . SVG Version: 6.00 Build 0)  -->
<svg version="1.1" id="layer" xmlns="http://www.w3.org/2000/svg" xmlns:xlink="http://www.w3.org/1999/xlink" x="0px" y="0px"
	 viewBox="-153 -46 652 652" style="enable-background:new -153 -46 652 652;" xml:space="preserve">
<style type="text/css">
	.st0{fill:#F16522;}
	.st1{fill:#F6921E;}
	.st2{fill:#FFC10E;}
	.st3{fill:#fff;}
</style>
<path class="st0" d="M-30.6,198c12.9,0,23.4,10.5,23.4,23.4s-10.5,23.4-23.4,23.4S-54,234.3-54,221.4S-43.5,198-30.6,198z
	 M2.5,300.8c12.9,0,23.4,10.5,23.4,23.4s-10.5,23.4-23.4,23.4s-23.4-10.5-23.4-23.4S-10.4,300.8,2.5,300.8z M-102.6,279
	c12.9,0,23.4,10.5,23.4,23.4c0,12.9-10.5,23.4-23.4,23.4s-23.4-10.5-23.4-23.4C-126,289.5-115.5,279-102.6,279z"/>
<path class="st1" d="M-99.5,240.1c8.4,0,15.2,6.8,15.2,15.2c0,8.4-6.8,15.2-15.2,15.2s-15.2-6.8-15.2-15.2
	C-114.7,246.9-107.9,240.1-99.5,240.1z M9.1,233.9c8.4,0,15.2,6.8,15.2,15.2s-6.8,15.2-15.2,15.2S-6.1,257.4-6.1,249
	S0.7,233.9,9.1,233.9z M-40.7,328.9c8.4,0,15.2,6.8,15.2,15.2s-6.8,15.2-15.2,15.2s-15.2-6.8-15.2-15.2S-49.1,328.9-40.7,328.9z"/>
<path class="st2" d="M-76.5,325c5.8,0,10.5,4.7,10.5,10.5S-70.7,346-76.5,346s-10.5-4.7-10.5-10.5S-82.4,325-76.5,325z M19.3,272.8
	c5.8,0,10.5,4.7,10.5,10.5s-4.7,10.5-10.5,10.5s-10.5-4.7-10.5-10.5S13.4,272.8,19.3,272.8z M-74.2,218.3c5.8,0,10.5,4.7,10.5,10.5
	s-4.7,10.5-10.5,10.5c-5.8,0-10.5-4.7-10.5-10.5S-80,218.3-74.2,218.3z"/>
<path class="st3" d="M466.2,240.4c1.3,0,2.7,0.4,3.8,1c1.2,0.7,2.2,1.7,2.9,2.9c0.7,1.2,1,2.5,1,3.9c0,1.4-0.4,2.7-1,3.9
	c-0.7,1.2-1.7,2.2-2.9,2.9c-2.4,1.4-5.3,1.4-7.7,0c-1.2-0.7-2.2-1.7-2.9-2.9c-1.4-2.4-1.4-5.4,0-7.8c0.7-1.2,1.7-2.2,2.9-2.9
	C463.6,240.8,464.9,240.4,466.2,240.4L466.2,240.4z M466.2,241.7c-1.1,0-2.2,0.3-3.2,0.8c-1,0.5-1.9,1.4-2.4,2.4
	c-1.2,2-1.2,4.5,0,6.5c0.6,1,1.4,1.9,2.4,2.4c2,1.2,4.5,1.2,6.5,0c1-0.5,1.9-1.4,2.4-2.4c0.6-1,0.9-2.1,0.9-3.2
	c0-1.1-0.3-2.3-0.9-3.3c-0.6-1-1.4-1.9-2.4-2.4C468.5,242,467.4,241.7,466.2,241.7z M462.8,252.5v-8.4h2.9c0.7,0,1.4,0,2.1,0.2
	c0.4,0.1,0.8,0.4,1.1,0.8c0.3,0.4,0.4,0.8,0.4,1.2c0,0.6-0.2,1.2-0.7,1.6c-0.5,0.5-1.1,0.7-1.7,0.8c0.3,0.1,0.5,0.3,0.7,0.4
	c0.5,0.5,0.9,1.1,1.2,1.7l1,1.6h-1.7l-0.7-1.3c-0.3-0.7-0.8-1.4-1.4-1.9c-0.3-0.2-0.7-0.3-1.1-0.3h-0.8v3.6H462.8z M464.2,247.8h1.6
	c0.6,0.1,1.1-0.1,1.6-0.3c0.3-0.2,0.4-0.6,0.4-0.9c0-0.2-0.1-0.5-0.2-0.7c-0.1-0.2-0.3-0.4-0.6-0.4c-0.4-0.1-0.9-0.2-1.4-0.1h-1.5
	V247.8z M102.5,361.5V243.3h12.6v14.9c3-5.7,6.9-10.1,11.9-13.2c4.9-3.1,10.6-4.7,16.4-4.6c11.2,0,20.2,3.9,27,11.7
	c6.8,7.8,10.2,18.2,10.2,31.1c0,13.1-3.3,23.6-10,31.3c-6.6,7.7-15.5,11.6-26.6,11.6c-6.4,0-12-1.5-16.7-4.5
	c-4.7-3-8.6-7.4-11.6-13.3v53.1H102.5z M115.3,283.2c0,8.9,2.4,16.1,7.2,21.4c4.8,5.4,11.2,8.1,19.1,8.1c7.7,0,13.8-2.5,18.3-7.4
	s6.7-11.8,6.7-20.5c0-9.8-2.2-17.4-6.7-23c-4.4-5.6-10.6-8.3-18.5-8.3c-8.1,0-14.4,2.6-19.1,7.9S115.3,274,115.3,283.2L115.3,283.2z
	 M266.1,243.3v79.4h-12.9v-14.4c-3.1,5.8-7.1,10.2-11.9,13.2c-4.9,3-10.5,4.6-16.2,4.6c-11.1,0-20.1-3.9-26.9-11.8
	c-6.8-7.8-10.2-18.2-10.2-31.1c0-13.1,3.3-23.5,9.9-31.2s15.5-11.6,26.5-11.6c6.5,0,12.1,1.5,16.9,4.5c4.8,3,8.6,7.4,11.6,13.3v-15
	H266.1z M253.2,283.8c0-9-2.4-16.2-7.2-21.7c-4.8-5.5-11-8.2-18.7-8.2c-8,0-14.2,2.5-18.6,7.6s-6.7,12.1-6.7,21.1
	c0,9.6,2.2,17,6.7,22.2c4.5,5.2,10.9,7.8,19.1,7.8c7.9,0,14.1-2.5,18.6-7.6C251,300,253.2,292.9,253.2,283.8z M357,243.3v78
	c0,8.6-0.6,14.8-1.7,18.4c-1.1,3.6-3,7-5.6,9.8c-3.6,4-8.2,7.1-13.3,8.9c-5.2,2-11.2,2.9-18,2.9c-11.8,0-20.9-2.7-27.5-8.2
	s-10-13.3-10.3-23.4h14.9v1c0,6,2,10.6,6,13.8c4,3.2,9.7,4.9,17,4.9c5.3,0,9.8-0.9,13.6-2.6c3.6-1.6,6.6-4.4,8.6-7.9
	c1.2-2.1,2.1-4.4,2.5-6.8c0.5-2.6,0.8-6.3,0.8-11.2v-13.4c-3,5.7-6.9,10-11.8,13.1c-4.9,3-10.6,4.6-16.4,4.6
	c-11.1,0-20.1-3.9-26.9-11.6c-6.8-7.8-10.2-18.1-10.2-30.9c0-13,3.3-23.3,9.9-30.9c6.6-7.6,15.5-11.4,26.5-11.4
	c6.4,0,12.1,1.5,17,4.5c4.9,3,8.7,7.4,11.5,13.2v-14.8H357z M344.2,283.3c0-8.9-2.4-16.1-7.1-21.5s-11-8.1-18.7-8.2
	c-8,0-14.2,2.5-18.6,7.6c-4.5,5-6.7,12.1-6.7,21.1c0,9.6,2.2,17,6.7,22.2s10.9,7.8,19.1,7.8c7.9,0,14.1-2.6,18.6-7.7
	C341.9,299.5,344.2,292.4,344.2,283.3z M448.3,243.3v79.4h-12.9v-14.4c-3.1,5.8-7.1,10.2-11.9,13.2c-4.9,3-10.5,4.6-16.2,4.6
	c-11.1,0-20.1-3.9-26.9-11.8c-6.8-7.8-10.2-18.2-10.2-31.1c0-13.1,3.3-23.5,9.9-31.2c6.6-7.7,15.5-11.6,26.5-11.6
	c6.5,0,12.1,1.5,16.9,4.5c4.8,3,8.6,7.4,11.6,13.3v-15H448.3z M435.4,283.8c0-9-2.4-16.2-7.2-21.7c-4.8-5.5-11-8.2-18.7-8.2
	c-8,0-14.2,2.5-18.6,7.6c-4.5,5-6.7,12.1-6.7,21.1c0,9.6,2.2,17,6.7,22.2c4.5,5.2,10.9,7.8,19.1,7.8c7.9,0,14.1-2.5,18.6-7.6
	S435.4,292.9,435.4,283.8z"/>
</svg>
