<svg width="201" height="40" viewBox="0 0 201 40" fill="none" xmlns="http://www.w3.org/2000/svg">
<path d="M16.187 0.26623C12.4687 1.00515 9.05654 2.77214 6.30794 5.38647C4.51163 7.09925 3.39829 8.57709 2.33841 10.6325C0.703817 13.8058 0.0930176 16.3652 0.0930176 19.9889C0.0930176 23.6125 0.703817 26.1727 2.33841 29.3452C3.39829 31.4007 4.51163 32.8785 6.30794 34.5913C10.0616 38.1788 14.66 40 19.9407 40C23.4611 40 26.1015 39.3869 29.0111 37.9265C30.4659 37.1875 32.424 35.9252 32.424 35.709C32.424 35.6367 31.328 34.4829 29.9995 33.1489L27.5743 30.7153L26.4964 31.3103C24.4849 32.4281 23.0301 32.825 20.641 32.9147C18.8273 32.9869 18.2346 32.9508 16.9588 32.6262C11.0854 31.1477 7.09783 26.0462 7.09783 19.9889C7.09783 12.7416 12.8095 7.00889 20.0302 7.00889C29.5317 7.00889 35.7286 16.7802 31.7951 25.5415L31.2919 26.6773L33.699 29.1109C35.0102 30.4449 36.1776 31.5265 36.2852 31.5265C36.6802 31.5265 38.2967 28.4979 38.9978 26.4243C39.6801 24.4231 39.9674 22.476 39.9674 19.9882C39.9674 16.3645 39.3566 13.8044 37.722 10.6319C36.6621 8.57642 35.5488 7.09858 33.7525 5.38581C30.9685 2.71792 27.5563 0.96901 23.7478 0.248159C21.9882 -0.0945288 17.8931 -0.0764581 16.187 0.26623V0.26623ZM87.5637 18.8169V32.0673H92.4133V5.56652H87.5637V18.8169ZM162.535 5.83692C155.836 7.29736 151.057 13.8774 151.866 20.4755C152.279 23.7564 153.447 26.1184 155.799 28.4617C158.045 30.6791 160.002 31.7427 163.002 32.3558C166.289 33.0231 170.385 32.1577 173.115 30.2287L173.617 29.8679L174.605 30.7514C176.418 32.3196 176.204 32.3016 177.317 31.076C179.095 29.1109 179.077 29.2917 177.712 28.0474L176.526 26.9839L177.299 25.6138C180.351 20.2412 179.473 13.9316 175.036 9.53287C173.078 7.56777 170.904 6.3958 168.246 5.83692C166.757 5.51231 163.99 5.51231 162.535 5.83692V5.83692ZM167.834 10.4157C171.426 11.5334 174.138 15.2829 174.138 19.1235C174.138 20.2231 173.706 21.954 173.186 22.9814L172.791 23.7384L171.012 22.1882L169.234 20.6381L168.445 21.5216C167.995 22.0263 167.402 22.7116 167.115 23.0898L166.594 23.739L168.319 25.2356L170.024 26.7315L169.216 27.1465C168.12 27.7054 166.539 28.1023 165.426 28.1023C160.81 28.1023 156.714 23.7752 156.714 18.926C156.714 17.8625 157.127 16.2039 157.703 15.0319C158.241 13.9323 159.696 12.2376 160.792 11.4806C162.769 10.1272 165.552 9.71291 167.834 10.4157V10.4157ZM46.2532 8.18019V10.4338H54.5157V32.0673H59.5451V10.4338H67.8076V5.92661H46.2532V8.18019V8.18019ZM182.759 18.997V32.0673H200.901V27.7409H187.609V5.92728H182.759V18.997V18.997ZM140.011 9.71291V12.4169H137.137V16.3833H139.993L140.047 22.549L140.101 28.7328L140.586 29.6343C141.628 31.6175 143.191 32.5191 145.58 32.5191C146.962 32.5191 147.232 32.4649 148.328 31.9241C149.01 31.5814 149.603 31.2032 149.657 31.0586C149.711 30.9141 149.567 30.3733 149.351 29.8505C149.118 29.3459 148.831 28.6605 148.705 28.3359L148.472 27.777L147.789 28.1197C146.999 28.5347 146.28 28.5521 145.598 28.21C144.663 27.7054 144.61 27.3808 144.538 21.6481L144.484 16.384H148.992V12.4176H144.502V7.00956H140.011V9.71291V9.71291ZM74.9013 12.002C73.7879 12.0923 72.1173 12.3989 71.1296 12.7228C70.357 12.9571 68.2199 13.8225 68.004 13.9845C67.9138 14.0387 69.4408 17.4636 69.5484 17.4636C69.5845 17.4636 69.9073 17.3197 70.2849 17.1209C73.1584 15.6604 76.6789 15.625 78.2954 17.0667C78.8167 17.5352 79.4809 19.086 79.4809 19.8791C79.4809 20.5103 79.4448 20.5638 79.086 20.4561C76.5171 19.7352 73.554 19.5364 71.7577 19.9695C69.5484 20.5103 67.6626 21.9526 66.7824 23.7551C66.3514 24.6205 66.2792 24.9813 66.2792 26.2972C66.2792 27.5769 66.3507 27.9919 66.7464 28.8211C67.6806 30.7682 69.4589 32.0305 71.8653 32.4448C74.2363 32.8598 76.5713 32.3364 78.4752 30.9663L79.4809 30.2454V32.0666H84.1508V25.4685C84.1508 18.4555 84.0793 17.6262 83.2172 15.9496C82.714 14.9583 81.1516 13.4437 80.0917 12.9029C78.7452 12.2362 76.608 11.8581 74.9013 12.002V12.002ZM77.0564 23.2337C77.7568 23.3421 78.5828 23.5041 78.9062 23.6119C79.4809 23.7919 79.4809 23.81 79.4809 24.9639C79.4809 26.2978 79.229 26.9109 78.3315 27.686C76.32 29.471 72.5122 29.3988 71.2726 27.5601C70.5542 26.5147 70.7694 24.982 71.7577 24.1707C73.0154 23.1433 74.5063 22.8729 77.0564 23.2337ZM103.819 12.0568C101.61 12.3092 99.6166 13.265 98.0716 14.8332C96.7063 16.2032 95.9164 17.5733 95.4673 19.3758C93.9403 25.3789 97.2817 31.0399 103.137 32.3558C106.245 33.0411 110.465 32.0673 112.729 30.1203L113.465 29.4891L112.064 28.0829L110.681 26.6767L110.214 27.0013C109.478 27.524 108.023 28.2094 107.107 28.4617C106.011 28.7502 103.819 28.6244 102.993 28.2094C101.521 27.5066 100.245 25.9016 99.8498 24.2611L99.7422 23.7745H114.866L114.794 23.0898C114.74 22.729 114.651 21.8636 114.597 21.197C114.309 17.7714 112.244 14.2743 109.729 12.9939C108.148 12.1827 105.867 11.8219 103.819 12.0568V12.0568ZM106.801 16.1129C108.328 16.6537 109.387 17.8618 109.945 19.7185L110.179 20.5297H104.988C102.114 20.5297 99.779 20.4935 99.779 20.4574C99.779 20.1328 100.408 18.7446 100.839 18.1315C102.113 16.2568 104.718 15.374 106.801 16.1129V16.1129ZM126.684 12.0742C125.373 12.2724 123.936 12.9397 122.876 13.8774L122.05 14.6163V12.4169H117.201V32.068H122.032L122.087 25.6319C122.141 19.3403 122.159 19.1596 122.536 18.4207C123.29 17.0325 124.871 16.149 126.631 16.149C128.247 16.131 129.433 16.8525 130.187 18.2761C130.564 18.9796 130.582 19.2319 130.636 25.5234L130.691 32.068H135.343V25.1627C135.343 20.0069 135.272 18.0418 135.092 17.3745C134.102 13.5889 130.725 11.4792 126.684 12.0742V12.0742Z" fill="white"/>
</svg>
