<svg width="300" height="27" viewBox="0 0 300 27" fill="none" xmlns="http://www.w3.org/2000/svg">
<path fill-rule="evenodd" clip-rule="evenodd" d="M179.541 12.332C139.616 12.8115 99.6716 14.7139 59.9209 18.1144C41.0221 19.7313 19.075 19.5292 0.745504 25.042C-0.167805 25.3195 0.00613134 26.1518 0.0258999 26.235C0.0654371 26.4054 0.231536 26.9721 0.95902 26.9999C1.03809 27.0038 1.59553 26.9246 1.80903 26.8968C7.22167 26.1834 12.6146 25.3512 18.0312 24.6775C36.7323 22.3431 55.4887 20.5795 74.2728 19.0338C99.205 16.9809 124.351 15.887 149.35 15.031C163.034 14.5633 177.046 15.1855 190.773 14.2185C195.814 14.1907 200.855 14.1869 205.896 14.2027C226.969 14.278 248.019 15.0786 269.057 16.1764C275.822 16.5291 280.981 16.9096 287.604 17.1672C290.118 17.2663 294.108 17.3337 296.883 17.3772C297.29 17.3852 298.33 17.393 298.761 17.397C298.805 17.4049 298.848 17.4049 298.896 17.4049C299.062 17.4049 299.141 17.393 299.156 17.393C300.097 17.2543 300.01 16.3626 299.987 16.2279C299.983 16.2001 299.841 15.4471 299.03 15.4193C298.836 15.4114 297.448 15.4036 296.915 15.3956C294.155 15.352 290.182 15.2847 287.679 15.1895C281.068 14.9319 275.913 14.5515 269.16 14.1987C248.09 13.1009 227.009 12.2964 205.904 12.2211C203.326 12.2132 200.744 12.2092 198.167 12.2132C198.08 11.9873 197.886 11.7336 197.459 11.6226C197.06 11.5196 194.201 11.4285 193.098 11.3373C184.934 10.6636 185.175 10.6953 176.192 10.1444C162.587 9.30813 160.515 9.11781 146.365 8.76508C120.662 8.12304 94.9468 8.17463 69.2398 8.23804C56.5483 8.27371 42.9593 9.13371 30.0742 7.52861C34.3205 7.02924 38.5826 6.66464 42.8368 6.2485C57.3628 4.82967 71.9006 3.94979 86.4859 3.33153C121.472 1.84928 156.514 1.25881 191.489 3.28005C184.044 3.35139 176.603 3.51779 169.158 3.6248C138.853 4.06868 108.255 3.73581 78.013 6.03844C77.4714 6.08203 77.0642 6.55759 77.1037 7.10055C77.1432 7.64748 77.6216 8.05571 78.1633 8.01608C108.366 5.71345 138.92 6.05029 169.186 5.60641C180.43 5.44392 191.671 5.15067 202.915 5.23786C206.774 5.26956 210.633 5.41226 214.492 5.45982C215.255 5.47171 217.22 5.62231 217.5 5.5589C218.121 5.42019 218.255 4.96043 218.295 4.73452C218.315 4.59977 218.378 3.82298 217.429 3.54556C210.953 1.65114 199.001 1.73833 192.707 1.36579C157.301 -0.734719 121.824 -0.148178 86.4029 1.34992C71.782 1.97214 57.2086 2.856 42.6431 4.27879C37.5546 4.77419 32.4543 5.20222 27.3857 5.86011C26.5673 5.96712 24.7288 6.12171 23.8392 6.2842C23.4675 6.35158 23.1987 6.44663 23.0801 6.514C22.6175 6.77558 22.5345 7.15605 22.5345 7.41366C22.5305 7.61182 22.6135 8.30935 23.5822 8.49958C38.3414 11.3967 54.4014 10.2593 69.2437 10.2197C94.935 10.1562 120.63 10.1047 146.318 10.7467C160.432 11.0994 162.496 11.2858 176.073 12.122C177.414 12.2013 178.548 12.2725 179.541 12.332Z" fill="#99C2FF"/>
</svg>
