<svg width="69" height="112" viewBox="0 0 69 112" fill="none" xmlns="http://www.w3.org/2000/svg">
<path fill-rule="evenodd" clip-rule="evenodd" d="M52.977 28.4208C43.0507 21.6101 32.1229 20.9179 19.9158 21.5262C17.8546 21.6293 12.8327 22.0611 9.07582 23.5033C6.41898 24.5225 4.41228 26.0748 4.27522 28.2652C4.15397 30.1794 5.40686 31.6723 7.37665 32.7806C11.6536 35.1878 19.3447 35.8154 21.7063 35.8119C32.3443 35.7926 43.0648 33.5218 52.8715 29.4155C53.476 29.842 54.0787 30.293 54.6779 30.7685C56.4808 32.2037 58.4804 34.0952 59.8704 36.2576C61.2216 38.3589 62.0001 40.7189 61.3956 43.1592C60.1357 48.2515 54.5725 52.1481 47.709 55.0465C46.2136 55.6793 44.6568 56.2614 43.0648 56.7981C42.144 56.1723 41.0967 55.5971 39.9493 55.0709C31.0475 50.9873 16.2381 49.7252 11.7625 49.9455C9.76991 50.0434 6.10095 50.1744 3.43005 51.3142C1.52001 52.1288 0.11247 53.4504 0.00528279 55.5482C-0.0913616 57.4169 1.14569 58.8312 3.08561 59.8538C7.2747 62.0617 14.7919 62.455 17.2379 62.434C22.7993 62.3886 33.4056 60.9097 42.9383 57.7613C44.7569 59.0654 45.9623 60.588 46.189 62.3816C46.5053 64.8762 44.6796 67.1645 41.884 69.2115C41.0405 69.8286 40.1092 70.423 39.1164 70.9876C39.0233 70.9614 38.9319 70.9369 38.8388 70.9107C31.355 68.8567 21.8733 68.7623 17.6948 69.0857C15.8093 69.2308 12.4127 69.729 9.99833 71.0453C8.27631 71.9858 7.05332 73.3406 7.06035 75.2181C7.06738 77.1462 8.53636 78.2073 10.5132 78.7125C13.2104 79.3996 16.846 79.057 18.1955 78.9206C21.9963 78.5395 32.0702 75.9016 39.2236 71.9299C41.4078 72.5714 43.3951 73.393 44.9783 74.4436C46.6512 75.5502 47.8724 76.9102 48.3662 78.5902C49.5804 82.735 46.4702 86.2173 41.9173 88.9496C40.5309 89.7817 39.0092 90.5421 37.4225 91.2256C36.2399 89.9687 34.5408 88.9338 32.5499 88.1245C27.8582 86.219 21.55 85.5372 16.89 85.9446C15.2821 86.0844 12.5146 86.4777 10.5905 87.586C9.19884 88.3867 8.24115 89.5544 8.31319 91.2116C8.39929 93.2255 9.76639 94.4702 11.6255 95.2131C14.212 96.2445 17.7633 96.2934 19.6382 96.3371C23.3195 96.4211 30.6978 94.9666 37.1818 92.2745C37.6175 92.8287 37.9426 93.4265 38.1359 94.0733C38.8669 96.5067 37.6914 99.5397 33.6358 103.296C31.6713 105.114 29.5205 106.725 27.1062 107.897C23.627 109.59 20.0124 110.481 16.2187 111.132C15.9797 111.173 15.8181 111.399 15.8603 111.637C15.9007 111.874 16.1291 112.035 16.3681 111.993C20.2444 111.329 23.938 110.411 27.4927 108.682C29.9844 107.471 32.2072 105.812 34.235 103.936C38.649 99.8474 39.7736 96.4718 38.9793 93.8234C38.7755 93.1468 38.4452 92.514 38.0076 91.9231C39.5469 91.2518 41.0212 90.5089 42.3707 89.6978C47.3171 86.7295 50.5292 82.8469 49.2096 78.3455C48.2344 75.0205 44.7183 72.7724 40.2568 71.3337C41.0177 70.8757 41.7381 70.4037 42.4041 69.916C45.5037 67.647 47.412 65.037 47.0623 62.2732C46.8286 60.4325 45.6882 58.8189 43.9258 57.4274C45.3368 56.9397 46.7197 56.4153 48.0534 55.8506C55.2086 52.8281 60.9352 48.678 62.2495 43.3672C62.782 41.2171 62.3585 39.1211 61.4043 37.1824C60.0109 34.3592 57.4771 31.8768 55.2261 30.0868C54.7587 29.7144 54.2878 29.3561 53.8152 29.0134C54.9029 28.5414 55.98 28.0485 57.0431 27.531C59.6736 26.2531 62.782 24.6099 65.1647 22.416C66.7919 20.9161 68.0817 19.161 68.6791 17.0964C69.5384 14.1404 68.5877 11.6231 66.8305 9.54806C65.1314 7.53947 62.6678 5.95042 60.4256 4.78267C50.6118 -0.328839 39.0461 -1.74482 28.598 2.51186C28.3748 2.60277 28.2676 2.85799 28.359 3.08175C28.4504 3.30377 28.7069 3.41217 28.9319 3.31952C39.1357 -0.837521 50.4326 0.56444 60.0179 5.55708C62.1652 6.67413 64.5304 8.18802 66.1593 10.111C67.7284 11.9657 68.6035 14.2103 67.8356 16.8535C67.1398 19.2519 65.4213 21.1888 63.3654 22.7883C61.2603 24.4263 58.7967 25.7077 56.6565 26.7461C55.4458 27.3335 54.2176 27.8929 52.977 28.4208ZM36.5632 91.5875C35.4755 90.5194 33.9609 89.6419 32.2178 88.9339C27.6491 87.0774 21.506 86.4183 16.9673 86.8151C15.4526 86.948 12.8414 87.2976 11.0315 88.3412C9.9333 88.9741 9.13379 89.8673 9.19002 91.1749C9.26206 92.8217 10.4323 93.7936 11.954 94.402C14.4404 95.3931 17.8564 95.4211 19.6593 95.4631C23.2123 95.5435 30.2813 94.1537 36.5632 91.5875ZM38.0094 71.5942C30.7312 69.7237 21.7714 69.6468 17.7615 69.9562C15.9657 70.0943 12.7219 70.5558 10.42 71.8127C8.99849 72.5871 7.93191 73.664 7.93894 75.2146C7.94421 76.7267 9.18124 77.4697 10.7311 77.8647C13.3211 78.5255 16.8126 78.1812 18.1077 78.0518C21.7081 77.6899 31.0475 75.2688 38.0094 71.5942ZM42.0069 57.1442C41.2689 56.6897 40.4536 56.2649 39.5821 55.8646C30.8103 51.8404 16.2152 50.601 11.8065 50.8178C9.88588 50.9122 6.35046 51.0205 3.77621 52.1184C2.18948 52.7931 0.971768 53.8507 0.882152 55.5936C0.831194 56.5918 1.281 57.4134 2.04186 58.0969C2.86597 58.8399 4.04328 59.4185 5.38048 59.88C9.52389 61.31 15.1908 61.5775 17.2308 61.56C22.606 61.5163 32.7484 60.116 42.0069 57.1442ZM52.0106 28.8264C42.376 22.4247 31.7714 21.8094 19.9597 22.3985C17.9513 22.4999 13.0541 22.9142 9.39212 24.318C8.20954 24.7725 7.15698 25.3266 6.38734 26.0171C5.67393 26.6587 5.20827 27.4139 5.15204 28.3194C5.08703 29.3561 5.54392 30.2231 6.32235 30.9573C7.16403 31.7492 8.36768 32.3856 9.73476 32.903C13.9625 34.5025 19.7366 34.9413 21.7046 34.9378C32.0386 34.9186 42.4533 32.7509 52.0106 28.8264Z" fill="#99C2FF"/>
</svg>
